Fly_normalized_Motion_pl13
version=1
nRows=25
nColumns=43
inDegrees=yes
endheader
time		pelvis_tilt		pelvis_list		pelvis_rotation		pelvis_tx		pelvis_ty		pelvis_tz		hip_flexion_r		hip_adduction_r		hip_rotation_r		knee_angle_r		ankle_angle_r		subtalar_angle_r		mtp_angle_r		hip_flexion_l		hip_adduction_l		hip_rotation_l		knee_angle_l		ankle_angle_l		subtalar_angle_l		mtp_angle_l		lumbar_extension		lumbar_bending		lumbar_rotation		neck_flexion		neck_lateral_bending		neck_rotation		arm_flex_r		arm_add_r		arm_rot_r		elbow_flex_r		pro_sup_r		wrist_flex_r		wrist_dev_r		hand_finger_flex_r		arm_flex_l		arm_add_l		arm_rot_l		elbow_flex_l		pro_sup_l		wrist_flex_l		wrist_dev_l		hand_finger_flex_l		
0.520000		0.049854		-21.648250		87.985518		0.032483		1.953007		1.447923		47.537936		4.572387		5.188745		-96.542415		-1.063761		-6.536097		25.659480		58.658253		-9.036982		-5.130957		-100.149751		-1.471966		-12.792074		22.737931		-31.116973		-1.066471		-0.526997		18.091520		-1.387540		3.743283		103.390921		-8.589187		15.003033		79.897742		115.964242		-2.050759		5.688298		31.505383		105.136522		-19.389054		21.960545		77.272115		98.616236		-3.817664		5.145004		22.217503		
0.524520		0.026953		-21.690237		87.921035		0.032034		1.953234		1.441082		48.075757		4.644270		5.065815		-96.251243		-1.084658		-8.571952		24.985679		59.266959		-8.896654		-4.964266		-99.585898		-1.387856		-11.983700		22.769207		-31.135966		-1.079265		-0.551494		18.221255		-1.551350		3.768422		103.020385		-8.080686		14.787174		79.459139		115.518528		-1.944539		5.746734		31.355699		104.549745		-18.969993		21.234152		77.049889		99.205453		-3.869552		5.431126		22.058030		
0.529040		0.163836		-21.671489		87.893426		0.031741		1.953566		1.433980		48.544123		4.825927		4.856497		-95.820824		-1.432484		-10.100623		24.190944		59.762265		-8.895087		-4.690560		-98.969285		-1.142893		-11.077060		22.854460		-31.224906		-0.982339		-0.468429		18.209524		-1.619160		3.785386		102.593891		-7.853753		14.898816		79.193030		115.126560		-1.800758		5.797545		31.162153		103.968889		-18.716243		20.810216		76.908964		99.966867		-3.745882		5.694253		21.936737		
0.533561		0.136741		-21.542026		87.776744		0.031429		1.953843		1.426940		48.872843		4.881664		4.803252		-95.405194		-0.966114		-11.164630		23.917703		60.129013		-8.788954		-4.579198		-98.302213		-1.242208		-10.427956		22.895603		-31.468045		-1.050454		-0.449250		18.437961		-1.687564		3.810412		102.109804		-7.509271		14.862096		78.872204		114.924448		-1.818271		5.846906		31.076138		103.407153		-18.456707		20.413406		76.673667		100.157116		-3.919600		5.780918		21.826312		
0.538081		0.514696		-21.577310		87.850536		0.031480		1.953651		1.419902		49.423094		5.311883		4.323500		-94.835351		-1.659592		-13.615914		22.237944		60.765715		-8.980044		-4.035896		-97.750918		-0.612393		-8.561573		23.167745		-31.498517		-0.762387		-0.232424		18.435387		-1.742207		3.802074		101.520485		-7.346142		15.009685		78.592915		114.391884		-1.676033		5.966028		30.794306		102.611767		-18.132304		19.846107		76.594184		101.303055		-3.837934		6.167219		21.630911		
0.542601		0.416484		-21.413670		87.780923		0.030921		1.953759		1.412668		49.777633		5.207861		4.228528		-94.328100		-1.509250		-14.464687		21.843514		61.047201		-8.746365		-3.961482		-96.958454		-0.944217		-7.706478		23.232265		-31.764798		-0.840543		-0.279995		18.418060		-1.856729		3.821001		100.853810		-7.079912		15.059328		78.317875		114.260959		-1.652536		6.046023		30.742526		101.792440		-17.868318		19.379041		76.430838		101.350389		-4.048807		6.215351		21.504541		
0.547121		0.385586		-21.356331		87.748867		0.030426		1.953454		1.405607		50.328609		5.140725		4.014111		-93.802719		-1.820278		-15.506574		21.252196		61.460130		-8.559086		-3.816308		-96.175293		-0.978092		-6.584492		23.325123		-31.914861		-0.863130		-0.291712		18.400209		-1.935430		3.766706		100.146462		-6.913152		15.213025		78.035832		114.186966		-1.580460		6.161599		30.708481		100.954089		-17.667689		19.042578		76.295686		101.524746		-4.211288		6.378120		21.367641		
0.551641		0.410489		-21.171830		87.657823		0.030082		1.953043		1.398616		50.782665		5.171598		3.863303		-93.290727		-1.879619		-15.760502		21.079407		61.720641		-8.456694		-3.730366		-95.391185		-0.949416		-6.271029		23.352819		-32.225354		-0.904741		-0.202584		18.548102		-1.922655		3.747251		99.501997		-6.852354		15.477485		77.660523		114.198216		-1.502895		6.256936		30.709550		100.373234		-17.644829		19.145197		75.999449		101.602509		-4.204668		6.487183		21.340301		
0.556162		1.002062		-21.389141		87.881761		0.030213		1.951699		1.391795		51.618362		5.650078		3.081275		-92.597559		-2.223398		-17.197847		18.105378		62.621733		-8.722377		-2.969410		-94.774728		-0.546620		-4.185561		23.980707		-32.048958		-0.403236		0.110408		18.415064		-1.961872		3.686207		98.587094		-6.722033		15.597948		77.383765		114.452974		-1.441863		6.508799		30.501030		99.259209		-17.309662		18.552489		75.915960		102.437022		-3.877830		6.747404		20.886550		
0.560682		0.937606		-21.200255		87.783272		0.029932		1.951023		1.384733		52.062233		5.604466		2.947411		-91.988688		-2.232710		-17.221451		18.018362		62.809380		-8.568333		-2.966632		-93.849072		-0.730446		-3.823531		24.006335		-32.367379		-0.529472		0.136801		18.490547		-1.949171		3.643586		97.804657		-6.738267		15.899061		77.039808		114.541582		-1.409960		6.624199		30.488256		98.519840		-17.323973		18.674442		75.688327		102.443966		-3.891308		6.813159		20.859039		
0.565202		0.810977		-21.093949		87.706782		0.029627		1.950026		1.377610		52.574216		5.508054		2.832036		-91.325454		-2.268560		-17.284629		17.834441		63.086044		-8.385837		-2.993277		-92.877150		-1.104126		-3.007106		24.072415		-32.565680		-0.687658		0.100068		18.437723		-1.947723		3.565756		96.876640		-6.746857		16.170813		76.746012		114.762191		-1.494493		6.814747		30.402453		97.568719		-17.279480		18.668271		75.530527		102.452822		-3.992148		6.882478		20.776389		
0.569722		0.769932		-21.138962		87.635367		0.029491		1.948591		1.370742		53.265657		5.536422		2.687417		-90.581156		-2.283292		-17.175402		17.593240		63.527159		-8.331283		-2.984642		-91.912844		-1.344835		-1.920940		24.221551		-32.597217		-0.790443		0.145450		18.333679		-1.918849		3.501879		95.833048		-6.782069		16.466662		76.482462		115.233198		-1.728681		7.132290		30.160960		96.602316		-17.261161		18.716063		75.368859		102.561044		-4.073705		6.985322		20.662506		
0.574242		0.773591		-20.951360		87.563438		0.029566		1.947236		1.363424		53.688642		5.597763		2.478459		-89.818744		-2.331758		-16.939432		17.574651		63.665533		-8.321447		-2.971704		-90.939172		-1.557863		-1.560770		24.268950		-32.874966		-0.897663		0.168700		18.356405		-1.870623		3.468329		94.779941		-6.911795		16.856629		76.218785		115.348696		-1.684504		7.266732		30.108666		95.651108		-17.395863		18.923699		75.238145		102.593931		-4.022030		7.038651		20.664053		
0.578763		0.784395		-20.917549		87.551846		0.029439		1.945676		1.356246		54.233868		5.619722		2.297229		-88.924478		-2.298110		-16.161968		17.723056		63.971488		-8.303602		-2.959779		-89.900708		-2.122665		-0.683545		24.402794		-32.983899		-0.925438		0.189058		18.185943		-1.856134		3.420440		93.582336		-7.048817		17.265483		76.021975		115.500520		-1.737707		7.493026		29.899216		94.485972		-17.462042		18.923867		75.208048		102.690694		-4.027285		7.135201		20.628477		
0.583283		0.828830		-20.802161		87.541058		0.029394		1.943937		1.348786		54.686619		5.645334		2.034688		-88.021424		-2.312644		-15.303040		17.998003		64.148305		-8.296517		-2.942186		-88.866339		-2.476447		-0.326102		24.525470		-33.173948		-0.934048		0.199062		18.112120		-1.839433		3.386519		92.343291		-7.261364		17.749210		75.873794		115.355655		-1.556676		7.564073		29.859085		93.294953		-17.670998		19.013354		75.250562		102.795022		-3.890418		7.259032		20.661201		
0.587803		0.883689		-20.728121		87.557655		0.029307		1.942182		1.341597		55.139248		5.663842		1.771606		-86.994514		-2.259205		-14.445947		18.359754		64.350215		-8.296069		-2.959957		-87.768378		-2.770257		-0.099762		24.668640		-33.364790		-0.927144		0.193429		18.116209		-1.851706		3.370971		91.160362		-7.468238		18.201012		75.580942		115.150600		-1.349104		7.639821		29.832739		92.169840		-17.839163		19.085753		75.187767		102.933066		-3.710559		7.420384		20.702207		
0.592323		0.981846		-20.631929		87.576226		0.029215		1.940155		1.334078		55.558940		5.707949		1.512505		-85.960118		-2.358234		-13.113191		19.051364		64.532854		-8.302196		-2.927514		-86.718873		-3.316840		-0.146694		24.851455		-33.549312		-0.872326		0.170967		18.087658		-1.896628		3.396133		89.837852		-7.610195		18.585586		75.313546		114.774354		-1.073862		7.663809		29.876651		90.805249		-18.034419		18.896493		75.321681		103.179052		-3.358215		7.601003		20.801604		
0.596843		1.011616		-20.463327		87.549754		0.029090		1.938131		1.326499		55.863807		5.719549		1.261457		-84.857158		-2.617617		-12.561747		19.335192		64.553617		-8.325141		-3.042576		-85.615094		-3.484182		-0.225954		24.920342		-33.825288		-0.895112		0.177529		18.096693		-1.868939		3.386843		88.485682		-7.883298		18.984874		75.131601		114.690740		-0.912123		7.717844		29.916641		89.578589		-18.383074		19.038726		75.360106		103.338286		-3.110392		7.672915		20.876887		
0.601364		1.039977		-20.377059		87.491632		0.028989		1.935906		1.319099		56.234430		5.774290		1.103969		-83.661014		-2.946145		-11.647165		19.962303		64.654803		-8.373085		-3.177393		-84.478587		-3.824567		-0.488421		25.020912		-34.025828		-0.925419		0.190780		18.155825		-1.906705		3.436418		87.110350		-8.039576		19.262273		74.805058		114.619985		-0.790855		7.825569		29.896168		88.206727		-18.599743		18.887799		75.440656		103.720966		-2.827733		7.796326		20.942687		
0.605884		1.041447		-20.271731		87.421101		0.028850		1.933441		1.311502		56.569224		5.782762		0.920255		-82.472098		-3.290747		-10.912728		20.567783		64.686287		-8.423927		-3.345611		-83.337063		-4.087055		-0.713953		25.110996		-34.218889		-0.981363		0.193321		18.145091		-1.922860		3.470279		85.640790		-8.320919		19.590325		74.600539		114.580096		-0.632453		7.912949		29.898003		86.761702		-18.898341		18.822283		75.567593		104.081432		-2.550293		7.907502		21.005714		
0.610404		0.880697		-20.279146		87.275570		0.028581		1.930593		1.303905		57.023876		5.685625		0.898257		-81.214624		-4.364320		-10.538918		25.944385		64.776930		-8.384921		-3.652681		-82.153707		-4.465986		-1.137432		25.940071		-34.272419		-1.191392		0.161939		18.157994		-1.865211		3.528669		84.006062		-8.581445		19.646636		74.452970		114.719794		-0.114100		7.972886		29.536846		85.034802		-18.806458		18.058933		75.759150		105.631274		-1.353598		7.968542		20.850693		
0.614924		0.938720		-20.117525		87.239715		0.028622		1.927759		1.296054		57.226418		5.775439		0.700373		-79.929801		-4.853139		-10.035060		26.012690		64.703448		-8.517161		-3.780581		-81.044183		-4.528003		-1.127007		25.971417		-34.507671		-1.224393		0.184958		18.120296		-1.801261		3.478555		82.426319		-8.967779		19.965810		74.297661		114.641013		0.102197		8.060630		29.638002		83.519397		-19.168822		18.166958		75.879615		105.460807		-1.418572		8.043663		20.825747		
0.619444		0.980107		-20.008678		87.214861		0.028580		1.924630		1.288223		57.449478		5.828023		0.509912		-78.599914		-5.254913		-9.506784		26.128131		64.666449		-8.623341		-3.904788		-79.916081		-4.592788		-1.104004		25.998751		-34.681986		-1.253345		0.223151		18.136634		-1.743760		3.446721		80.811108		-9.350047		20.155039		74.100939		114.529788		0.354859		8.181937		29.757747		81.918508		-19.449566		18.154425		75.961856		105.247448		-1.538435		8.192082		20.805382		
0.623965		1.027949		-19.956026		87.206527		0.028478		1.921192		1.280443		57.702258		5.854222		0.306063		-77.229307		-5.589530		-8.940510		26.330920		64.670953		-8.718356		-4.002305		-78.770629		-4.647729		-1.045275		26.035995		-34.792000		-1.265069		0.264897		18.180352		-1.724822		3.404984		79.166800		-9.713289		20.255289		73.857545		114.394960		0.668775		8.364039		29.860602		80.259556		-19.658958		18.002278		76.032075		104.961229		-1.752875		8.412551		20.782349		
0.628485		1.054424		-19.865760		87.211209		0.028243		1.917590		1.272596		57.873044		5.817924		0.081109		-75.837559		-5.876565		-8.547279		26.459325		64.614433		-8.777266		-4.129176		-77.617660		-4.700230		-0.972156		26.060773		-34.933510		-1.278842		0.295823		18.159944		-1.693964		3.361823		77.534713		-10.176977		20.421220		73.633254		114.309361		0.914140		8.513139		29.921423		78.650394		-20.002942		18.006387		76.091704		104.765920		-1.851721		8.546031		20.798406		
